<?xml version="1.0" standalone="no"?>
<!DOCTYPE svg PUBLIC "-//W3C//DTD SVG 1.1//EN" "http://www.w3.org/Graphics/SVG/1.1/DTD/svg11.dtd" >
<svg xmlns="http://www.w3.org/2000/svg">
<metadata>
Created by FontForge 20120731 at Fri Feb 24 16:11:51 2017
 By admin
</metadata>
<defs>
<font id="iconfont" horiz-adv-x="1024" >
  <font-face 
    font-family="iconfont"
    font-weight="500"
    font-stretch="normal"
    units-per-em="1024"
    panose-1="2 0 6 3 0 0 0 0 0 0"
    ascent="896"
    descent="-128"
    x-height="792"
    bbox="29 -123 1021 873"
    underline-thickness="0"
    underline-position="0"
    unicode-range="U+0078-E65B"
  />
<missing-glyph 
 />
    <glyph glyph-name=".notdef" 
 />
    <glyph glyph-name=".notdef" 
 />
    <glyph glyph-name=".null" horiz-adv-x="0" 
 />
    <glyph glyph-name="nonmarkingreturn" horiz-adv-x="341" 
 />
    <glyph glyph-name="x" unicode="x" horiz-adv-x="1001" 
d="M281 543q-27 -1 -53 -1h-83q-18 0 -36.5 -6t-32.5 -18.5t-23 -32t-9 -45.5v-76h912v41q0 16 -0.5 30t-0.5 18q0 13 -5 29t-17 29.5t-31.5 22.5t-49.5 9h-133v-97h-438v97zM955 310v-52q0 -23 0.5 -52t0.5 -58t-10.5 -47.5t-26 -30t-33 -16t-31.5 -4.5q-14 -1 -29.5 -0.5
t-29.5 0.5h-32l-45 128h-439l-44 -128h-29h-34q-20 0 -45 1q-25 0 -41 9.5t-25.5 23t-13.5 29.5t-4 30v167h911zM163 247q-12 0 -21 -8.5t-9 -21.5t9 -21.5t21 -8.5q13 0 22 8.5t9 21.5t-9 21.5t-22 8.5zM316 123q-8 -26 -14 -48q-5 -19 -10.5 -37t-7.5 -25t-3 -15t1 -14.5
t9.5 -10.5t21.5 -4h37h67h81h80h64h36q23 0 34 12t2 38q-5 13 -9.5 30.5t-9.5 34.5q-5 19 -11 39h-368zM336 498v228q0 11 2.5 23t10 21.5t20.5 15.5t34 6h188q31 0 51.5 -14.5t20.5 -52.5v-227h-327z" />
    <glyph glyph-name="bottom" unicode="&#xe658;" 
d="M515 106q-15 0 -25 11l-16 16l-0.5 0.5l-0.5 0.5l-433 439q-10 11 -10 26.5t10 26.5l17 17q11 11 25.5 11t25.5 -11l407 -414l408 414q11 11 25.5 11t25.5 -11l17 -17q10 -11 10 -26.5t-10 -26.5l-450 -456q-11 -11 -26 -11z" />
    <glyph glyph-name="left" unicode="&#xe659;" 
d="M704 -105q-17 0 -30 14l-381 416q-13 14 -13 35q0 19 11 33l377 465q13 15 32 15q16 0 28 -11q13 -14 14.5 -34.5t-11.5 -36.5l-348 -429l350 -383q14 -14 14 -35t-14 -36q-12 -13 -29 -13z" />
    <glyph glyph-name="right" unicode="&#xe65a;" 
d="M290.5 -101q-17.5 0 -30 12.5t-12.5 30t12 29.5l416 413l-416 413q-12 12 -12 29.5t12 30t30 12.5t30 -13l444 -441q13 -12 13 -31v-1q0 -18 -13 -31l-444 -440q-12 -13 -29.5 -13z" />
    <glyph glyph-name="top" unicode="&#xe65b;" horiz-adv-x="1025" 
d="M948.5 106q-14.5 0 -25.5 11l-408 414l-407 -414q-11 -11 -25.5 -11t-25.5 11l-17 17q-11 11 -11 26.5t11 25.5l450 457q11 11 25.5 11t25.5 -11l16 -16q0 -1 1 -1l433 -440q10 -10 10 -25.5t-10 -26.5l-17 -17q-11 -11 -25.5 -11z" />
    <glyph glyph-name="add" unicode="&#xe602;" 
d="M534 -1h-44q-7 0 -12 5.5t-5 12.5v735q0 7 5 12t12 5h44q7 0 12 -5t5 -12v-736q0 -7 -5 -12t-12 -5v0zM897 406v-44q0 -7 -5.5 -12t-12.5 -5h-735q-7 0 -12 5t-5 12v44q0 7 5 12t12 5h736q7 0 12 -5t5 -12z" />
    <glyph glyph-name="minus" unicode="&#xe603;" 
d="M897 406v-44q0 -7 -5 -12t-13 -5h-735q-7 0 -12 5t-5 12v44q0 7 5 12t12 5h736q7 0 12 -5t5 -12z" />
    <glyph glyph-name="loading" unicode="&#xe604;" 
d="M850 177q0 -6 5.5 -6t5.5 6v0q0 5 -5.5 5t-5.5 -5v0v0zM726 49v0q0 -4 3 -7.5t8 -3.5t8 3.5t3 7.5v0v0q0 5 -3 8t-8 3t-8 -3t-3 -8v0v0zM559 -16q0 -7 5 -12t12 -5t12 5t5 11.5t-5 11.5t-12 5t-12 -5t-5 -11v0zM380 -8v0q0 -9 6.5 -15.5t15.5 -6.5t15.5 6.5t6.5 15.5v0v0
q0 10 -6.5 16.5t-15.5 6.5t-15.5 -6.5t-6.5 -16.5v0v0zM221 74q0 -12 8 -20t19.5 -8t19.5 8t8 20v0q0 12 -8 20t-19.5 8t-19.5 -8t-8 -20v0v0zM110 213q0 -14 10 -24t24 -10t23.5 10t9.5 24t-9.5 23.5t-23.5 9.5t-24 -9.5t-10 -23.5v0zM69 383q0 -16 11.5 -27.5t27.5 -11.5
t27.5 11.5t11.5 28t-11.5 27.5t-27.5 11t-27.5 -11t-11.5 -28v0zM103 553q0 -19 13 -32t31.5 -13t31.5 13t13 31.5t-13 31.5t-31.5 13t-31.5 -13t-13 -31v0zM205 689q0 -20 15 -35t35.5 -15t35.5 15t15 35v0q0 21 -15 36t-35.5 15t-35.5 -15t-15 -36v0v0zM355 768
q0 -24 16.5 -40t39.5 -16t39.5 16t16.5 39.5t-16.5 39.5t-39.5 16t-39.5 -16t-16.5 -39v0zM524 772q0 -25 17.5 -43t43 -18t43.5 18t18 43v0q0 26 -18 44t-43.5 18t-43 -18t-17.5 -44v0v0zM678 703q0 -28 19.5 -47.5t47 -19.5t47.5 19.5t20 47.5t-20 47.5t-47.5 19.5
t-47 -19.5t-19.5 -47.5v0zM787 573q0 -30 21.5 -51.5t51.5 -21.5t51 21.5t21 51.5t-21 51t-51 21t-51.5 -21t-21.5 -51v0zM831 404q0 -32 23 -55t55 -23t55 23t23 55t-23 55t-55 23t-55 -23t-23 -55v0z" />
    <glyph glyph-name="cuo" unicode="&#xe607;" 
d="M819 31q-21 6 -119 104q-12 13 -38.5 38t-55 52.5t-55.5 53t-44.5 42t-18.5 16.5l-2 3l-2 -3q-202 -270 -211 -278q-20 -17 -58 -17q-23 0 -47 7q8 29 114 171q41 54 66 88q27 34 56 68l20 23l-23 19q-30 27 -94 80q-126 104 -134 123q-10 31 -8 64t10 53
q24 -4 59.5 -26.5t83.5 -65t77.5 -70.5t78.5 -77l22 -21l21 22q62 63 115.5 110t84.5 69t56.5 35t32.5 15t11 2h1h12q28 0 40 -7q-21 -26 -171 -163q-7 -6 -16.5 -15t-19 -18.5t-20 -20.5t-21 -21.5l-20 -20t-17.5 -18t-14.5 -15l-10 -10l-3.5 -3.5l-2 -2l14 -16
q44 -48 137 -144q118 -122 125 -138q10 -21 7 -48.5t-19 -39.5v0z" />
    <glyph glyph-name="dui" unicode="&#xe608;" 
d="M111 345q-10 11 0 21l37 39q5 5 12 5q6 0 10 -4l227 -208l14 23q10 17 34.5 55t89.5 123.5t127 149.5q181 185 259 241q2 2 5 2q5 0 7 -6l10 -26q2 -5 -1 -9q-147 -150 -253 -300q-133 -187 -271 -438l-307 332v0z" />
    <glyph glyph-name="delete" unicode="&#xe634;" 
d="M301 -24q-59 0 -100.5 41.5t-41.5 100.5v352q0 13 9 21.5t21.5 8.5t21.5 -9t9 -21v-352q0 -33 24 -57t57 -24h421q34 0 57.5 24t23.5 57v352q0 13 9 21.5t22 8.5t22 -9t9 -21v-352q0 -59 -42 -100.5t-101 -41.5h-421zM619 87q-12 0 -21 9t-9 22v352q0 13 9 21.5t21.5 8.5
t21.5 -9t9 -21v-352q0 -13 -9 -22t-22 -9zM404.5 87q-12.5 0 -21.5 9t-9 22v352q0 13 9 21.5t21.5 8.5t21.5 -9t9 -21v-352q0 -13 -9 -22t-21.5 -9zM134 586q-13 0 -22 9t-9 21.5t9 21.5t22 9h184v64q0 31 25.5 53.5t61.5 22.5h214q36 0 61.5 -22.5t25.5 -53.5v-63h184
q12 0 21 -9t9 -22t-9 -22t-21 -9h-756v0zM644 648v62q0 5 -7 10t-18 5h-214q-11 0 -18 -5t-7 -10v-63h264v1z" />
    <glyph glyph-name="edit" unicode="&#xe635;" horiz-adv-x="1028" 
d="M249 -11q-54 0 -92 38t-38 92v527q0 54 38 92t92 38h350q13 0 22 -9t9 -22t-9 -21.5t-22 -8.5h-346q-31 0 -52 -21.5t-21 -51.5v-519q0 -30 21.5 -51.5t51.5 -21.5h519q30 0 51.5 21t21.5 51v337q0 13 8.5 22t21.5 9t22 -9t9 -22v-341q0 -53 -38 -91t-92 -38h-527z
M350 171q-11 0 -20 8q-12 12 -8 28l38 139l11 17l377 377q19 19 47 19q31 0 55 -24l37 -36q23 -23 23 -56q0 -27 -19 -46l-377 -377l-17 -11l-140 -38h-3.5h-3.5v0zM391 240l60 16l-44 43zM497 290l271 270q-55 57 -56 57l-271 -271zM813 605l35 35q8 9 -2 18l-37 37
q-4 5 -11 5q-4 0 -7 -3l-35 -35z" />
    <glyph glyph-name="home" unicode="&#xe637;" horiz-adv-x="1026" 
d="M578 -65v269q0 11 -8.5 19.5t-21.5 8.5h-71q-12 0 -21 -8.5t-9 -19.5v-269h-195q-35 0 -60 24.5t-25 59.5v376q0 12 8.5 20.5t21 8.5t21 -8.5t8.5 -20.5v-373q0 -12 8.5 -20.5t21.5 -8.5h132v214q0 35 24.5 59.5t60.5 24.5h79q35 0 60 -24.5t25 -59.5v-214h131
q13 0 21.5 8.5t8.5 20.5v373q0 12 8.5 20.5t21 8.5t21 -8.5t8.5 -20.5v-377q0 -34 -25 -59t-60 -25h-194v1zM966 337q-12 0 -27 10l-1 1l-426 412l-424 -408q-14 -14 -29 -14q-10 0 -17 8q-10 10 -10 23q0 14 10 24l416 403q29 32 54 32q22 0 55 -33l416 -404q10 -10 10 -23
q0 -14 -10 -24q-7 -7 -17 -7v0z" />
    <glyph glyph-name="menu" unicode="&#xe63d;" 
d="M372 39q-16 0 -27 11t-11 26.5t11 27t27 11.5h495q15 0 26.5 -11.5t11.5 -27t-11.5 -26.5t-26.5 -11h-495zM157 39q-16 0 -27 11t-11 26.5t11 27t27 11.5h65q15 0 26.5 -11.5t11.5 -27t-11.5 -26.5t-26.5 -11h-65zM372 345q-16 0 -27 11t-11 27t11 27t27 11h495
q15 0 26.5 -11t11.5 -27t-11.5 -27t-26.5 -11h-495zM157 345q-16 0 -27 11t-11 27t11 27t27 11h65q15 0 26.5 -11t11.5 -27t-11.5 -27t-26.5 -11h-65zM372 652q-16 0 -27 11t-11 26.5t11 27t27 11.5h495q15 0 26.5 -11.5t11.5 -27t-11.5 -26.5t-26.5 -11h-495zM157 652
q-16 0 -27 11t-11 26.5t11 27t27 11.5h65q15 0 26.5 -11t11.5 -27t-11.5 -27t-26.5 -11h-65v0z" />
    <glyph glyph-name="message" unicode="&#xe63e;" 
d="M209 -45q-17 0 -25 16q-9 15 2 30q32 46 45 92q3 15 5 22q-74 51 -119 125q-51 85 -51 181q0 80 36 153q34 71 97 124q62 54 142 83q82 30 172 30t173 -31q80 -29 141 -82q62 -53 97 -124q36 -73 36 -153t-36 -153q-35 -71 -97 -124q-60 -52 -141 -83q-84 -30 -173 -30
q-12 0 -20.5 8.5t-8.5 21t8.5 21t20.5 8.5q80 0 153 26q70 26 124 72q54 47 83 107t29 126t-29 126t-83 107t-124 72q-73 27 -152.5 27t-152.5 -27q-72 -26 -124 -72q-54 -47 -83 -107t-29 -126q0 -80 42 -151q41 -69 115 -116q13 -8 13 -24q0 -47 -31 -109q34 9 67 31
q18 13 46 40q8 11 22 11q10 0 18 -6q10 -7 11 -19.5t-6 -21.5l-1.5 -2t-4 -4.5l-6 -6l-8 -8t-10 -9.5t-13 -10.5t-14.5 -10.5q-72 -49 -155 -49h-1v-1z" />
    <glyph glyph-name="notice" unicode="&#xe63f;" 
d="M525 -71q-44 0 -79 28q-34 27 -45 70h-190q-46 0 -79 32.5t-33 79.5q0 32 19 61l18 31v0q67 98 72 220q4 110 53 191q48 80 132 102q8 37 36 61q32 30 78 30h11q41 0 73 -26q31 -24 40 -65q85 -22 133 -102q49 -80 54 -191q4 -120 71 -219l2 -2v-2l17 -29l1 -1
q18 -27 18 -60q0 -46 -33 -79t-79 -33q-14 0 -23.5 9.5t-9.5 23t9.5 23t23.5 9.5q19 0 33 14t14 34q0 14 -7 25l-1 1l-18 32v0q-77 113 -82 252q-7 214 -155 236l-20 3l-9 30v2q0 21 -15 36t-36 15h-12q-21 0 -36 -15.5t-15 -36.5v0l-1 -2l-1 -7l-6 -18l-23 -7h-1
q-145 -25 -152 -236q-5 -139 -82 -253v0l-18 -30v-1q-8 -12 -8 -27q0 -19 14 -33t33 -14h35h3h412h7v0h4q10 0 23 -2t36.5 -15.5t39.5 -36.5q7 -11 4.5 -24t-13.5 -20q-7 -6 -18 -6q-17 0 -27 15q-16 25 -45 25h-1q-19 -1 -25 -13q-13 -37 -46 -59q-32 -26 -75 -26v0z
M469 27q19 -33 56 -33q22 0 38 12q11 8 18 21h-112v0z" />
    <glyph glyph-name="password" unicode="&#xe640;" 
d="M280 -62q-74 0 -127 52.5t-53 127.5v288q0 13 9.5 22.5t22.5 9.5h77v160q0 95 67 162t162 67h148q95 0 162.5 -67t67.5 -162v-160h76q13 0 23 -9.5t10 -22.5v-288q0 -75 -53 -128t-128 -53h-464v1zM164 118q0 -48 34 -82.5t82 -34.5h465q48 0 82 34.5t34 82.5v256h-697
v-256zM752 438v160q0 68 -48.5 116.5t-116.5 48.5h-149q-68 0 -116.5 -48.5t-48.5 -116.5v-160h479zM512.5 57q-54.5 0 -92.5 38.5t-38 92.5t38 92.5t92.5 38.5t92.5 -38.5t38 -92.5t-38 -92.5t-92.5 -38.5zM512 254q-27 0 -46.5 -19.5t-19.5 -47t19.5 -47t47 -19.5t47 19.5
t19.5 47t-19.5 47t-47.5 19.5z" />
    <glyph glyph-name="purchase" unicode="&#xe642;" 
d="M196 -57q-41 0 -70 29t-29 70v531q0 40 28.5 66.5t70.5 26.5h71q16 92 85 147.5t166 55.5q96 0 160 -54t80 -149h71q42 0 70 -26.5t28 -66.5v-531q0 -41 -29 -70t-70 -29h-632zM162 42q0 -11 11 -22t22 -11h633q12 0 22.5 5.5t10.5 15.5v367h-699v-355v0zM862 463v105
q0 11 -11.5 21.5t-22.5 10.5h-70v-89q0 -15 -10 -25t-24 -10q-12 0 -21 8.5t-9 23.5v92h-364v-92q0 -14 -9 -22t-21 -8q-14 0 -24 9t-10 24v89h-70q-11 0 -22.5 -10.5t-11.5 -21.5v-105h700v0zM691 666q-16 62 -63.5 99.5t-109.5 37.5q-64 0 -116.5 -38.5t-68.5 -98.5h358z
" />
    <glyph glyph-name="setting" unicode="&#xe644;" 
d="M512 -66q-27 0 -53 3q-20 3 -35 17t-18 33l-15 94l-6 2l-77 -55q-16 -11 -35 -11q-22 0 -38 13q-40 31 -75 75q-13 16 -13.5 36.5t11.5 36.5l55 76q-1 4 -3 7l-93 15q-19 3 -33.5 18t-16.5 35q-3 25 -3 52.5t3 54.5q2 20 16 34.5t34 17.5l93 16q3 5 3 6l-55 77
q-12 16 -11.5 36.5t12.5 36.5q33 43 76 76q16 13 37 13q20 0 36 -12l76 -55l7 3l15 92q3 20 17.5 34.5t34.5 16.5q27 3 54 3q28 0 53 -3q20 -2 35 -16t18 -34l15 -93q6 -2 7 -3l76 55q16 12 36 12q21 0 37 -13q43 -33 76 -76q12 -16 12.5 -36t-11.5 -37l-55 -76q2 -6 3 -7
l93 -15q20 -4 34 -18.5t16 -34.5q3 -27 3 -53q0 -29 -3 -54q-2 -19 -16 -34t-34 -18l-93 -15l-3 -7l55 -76q12 -16 11.5 -36.5t-12.5 -36.5q-33 -43 -76 -76q-16 -13 -37 -13q-20 0 -36 12l-76 55l-7 -3l-15 -93q-3 -20 -17.5 -34t-34.5 -16q-24 -4 -54 -4v0zM466 -2
q24 -3 46 -3t47 3l20 129l7 2q29 8 55 23l6 3l106 -77q36 29 65 65l-77 106l3 6q14 26 23 55l2 6l129 21q3 24 3 46t-3 47l-129 20l-2 6q-9 30 -23 56l-3 6l77 105q-29 37 -65 66l-106 -77l-6 3q-26 14 -55 23l-7 2l-20 129q-25 3 -47 3t-46 -3l-20 -129l-7 -2
q-29 -9 -55 -23l-6 -3l-106 77q-36 -30 -65 -66l77 -105l-3 -6q-15 -26 -23 -56l-2 -6l-129 -20q-3 -24 -3 -46.5t3 -46.5l129 -21l2 -6q8 -29 23 -55l3 -6l-77 -106q30 -38 65 -65l106 77l6 -3q26 -15 55 -23l7 -2l20 -129v0zM512.5 213q-70.5 0 -120.5 50t-50 120.5
t50 120t120.5 49.5t120.5 -49.5t50 -120t-50 -120.5t-120.5 -50zM512 488q-43 0 -74 -30.5t-31 -74t31 -74.5t74.5 -31t74 31t30.5 74.5t-30 73.5q-30 31 -75 31z" />
    <glyph glyph-name="search" unicode="&#xe646;" 
d="M960 -123q-11 0 -19 7l-111 111q-8 8 -8 20q0 9 5 16l-23 24q-126 -110 -291 -110q-89 0 -170.5 33.5t-143.5 96.5q-63 63 -96.5 144t-33.5 170t33.5 170t96.5 144t144 96.5t170 33.5q90 0 172 -35.5t141.5 -95t94.5 -141.5t35 -172q0 -169 -113 -296l23 -23q7 5 17 5
t19 -8l111 -110q8 -9 8 -20t-8 -19l-34 -34q-9 -7 -19 -7v0v0zM513 757q-74 0 -141 -28t-119 -80q-108 -108 -108 -260q0 -74 28 -141t80 -120q52 -52 119 -79.5t141 -27.5t141 28t120 80q108 108 108 260q-1 100 -50 184.5t-134 134t-185 49.5v0z" />
    <glyph glyph-name="tools" unicode="&#xe649;" 
d="M816 -64q-62 0 -102 44l-201 235q-47 -25 -92 -36t-66 -11q-57 0 -102 40l-122 125q-48 48 -52.5 124.5t36.5 155.5l7 12l26 -27l114 -113q36 -31 75 -31q44 0 74 30.5t30 73.5q0 42 -32 73l-111 116l-29 29l12 6q70 37 136 37q86 0 138 -55l121 -124q104 -114 10 -257
l229 -200q44 -40 44 -101q1 -60 -41 -103t-102 -43v0zM519 288q12 0 24 -12l1 -1l215 -252q21 -23 56 -23q34 0 57.5 23.5t24.5 57.5q0 34 -25 56l-248 212q-12 8 -12 25q0 4 4 16l1 2l1 1q46 60 49 108.5t-37 91.5l-119 124q-37 36 -96 36q-17 0 -33 -4l73 -73
q50 -49 50 -117q0 -70 -48.5 -118.5t-118.5 -48.5q-72 0 -117 50l-72 73q-19 -86 31 -137l118 -124q24 -24 56 -24q6 0 22.5 2.5t55 15.5t71.5 34l1 1q0 1 2 2q9 3 13 3zM815.5 40q-16.5 0 -28.5 12t-12 28.5t12 28t28.5 11.5t28 -11.5t11.5 -28t-11.5 -28.5t-28 -12z" />
    <glyph glyph-name="user" unicode="&#xe64b;" horiz-adv-x="1025" 
d="M129 -46q-27 0 -46.5 19t-19.5 47v83q0 13 8 25t21 20.5t19.5 12.5t12.5 7l227 109q-47 45 -71.5 116.5t-24.5 127.5v88q0 48 38 96t98.5 78.5t121.5 30.5t121 -30.5t98 -78.5t38 -96v-89q0 -56 -22 -127t-72 -117l225 -108l13 -6.5t19.5 -12t20.5 -21t8 -25.5v-84
q0 -27 -19 -46t-46 -19h-768zM128 20q0 -1 1 -1h769q1 0 1 1v75q-10 8 -22 13v1h-0.5h-0.5l-240 115q-27 13 -30.5 43.5t19.5 48.5q41 33 61.5 93.5t20.5 110.5v89q0 45 -62.5 92.5t-130.5 47.5q-40 0 -82 -18.5t-73 -49.5q-38 -39 -38 -72v-88q0 -49 22 -110.5t62 -93.5
q23 -20 20 -49q-4 -31 -31 -43l-242 -115q-15 -8 -24 -16v-75v1z" />
  </font>
</defs>
</svg>
